<?xml version="1.0" standalone="no"?>
<!DOCTYPE svg PUBLIC "-//W3C//DTD SVG 20010904//EN"
 "http://www.w3.org/TR/2001/REC-SVG-20010904/DTD/svg10.dtd">
<svg version="1.0" xmlns="http://www.w3.org/2000/svg"
 width="435.000000pt" height="116.000000pt" viewBox="0 0 435.000000 116.000000"
 preserveAspectRatio="xMidYMid meet">

<g transform="translate(0.000000,116.000000) scale(0.100000,-0.100000)"
fill="#000000" stroke="none">
<path d="M2739 849 c-55 -33 -89 -92 -89 -156 0 -29 4 -53 8 -53 4 0 24 27 43
60 33 57 51 71 64 50 10 -16 19 -12 37 20 9 17 23 30 30 30 7 0 26 -23 41 -51
28 -50 29 -51 43 -30 22 30 30 27 63 -25 22 -36 30 -42 35 -29 18 47 -21 137
-77 179 -42 31 -150 34 -198 5z"/>
<path d="M300 838 c0 -5 20 -8 45 -8 l45 0 0 -145 c0 -122 2 -145 15 -145 13
0 15 23 15 145 l0 145 45 0 c26 0 45 5 45 11 0 7 -34 10 -105 7 -58 -1 -105
-6 -105 -10z"/>
<path d="M590 695 l0 -155 93 2 c89 2 90 2 20 5 l-73 4 0 69 0 70 60 0 c33 0
60 4 60 10 0 6 -27 10 -60 10 l-60 0 0 60 0 60 70 0 c40 0 70 4 70 10 0 6 -37
10 -90 10 l-90 0 0 -155z"/>
<path d="M924 836 c-75 -33 -105 -143 -62 -226 43 -83 149 -106 207 -44 14 16
17 21 5 11 -65 -53 -141 -38 -174 35 -24 54 -25 92 -1 143 25 56 53 77 100 79
29 0 47 -6 66 -24 17 -16 24 -19 20 -8 -8 21 -65 48 -102 48 -15 -1 -42 -7
-59 -14z"/>
<path d="M1170 695 c0 -148 1 -155 20 -155 18 0 20 7 20 75 l0 75 80 0 80 0 0
-75 c0 -69 2 -75 20 -75 20 0 20 5 18 152 -3 136 -5 153 -20 156 -16 3 -18 -5
-18 -67 l0 -71 -80 0 -80 0 0 70 c0 63 -2 70 -20 70 -19 0 -20 -7 -20 -155z"/>
<path d="M1560 832 c-42 -20 -80 -89 -80 -142 0 -52 38 -120 80 -142 50 -27
114 -19 149 18 25 27 25 28 1 8 -75 -64 -165 -20 -185 89 -9 46 14 113 50 147
34 32 95 32 130 0 17 -16 24 -19 20 -8 -8 21 -65 48 -102 48 -15 0 -44 -8 -63
-18z"/>
<path d="M1810 731 c0 -66 4 -131 10 -145 23 -61 141 -75 187 -21 21 24 23 35
23 156 0 119 -2 130 -17 127 -16 -3 -18 -19 -21 -134 -2 -116 -5 -133 -22
-149 -26 -24 -74 -23 -100 0 -18 16 -20 31 -20 152 0 126 -1 133 -20 133 -19
0 -20 -7 -20 -119z"/>
<path d="M2100 696 l0 -156 88 0 c82 0 90 2 112 25 31 33 32 86 3 117 -19 20
-20 25 -7 42 19 27 18 69 -4 97 -16 19 -31 23 -105 27 l-87 5 0 -157z m152
117 c25 -23 23 -68 -4 -87 -12 -9 -42 -16 -65 -16 l-43 0 0 60 0 60 47 0 c29
0 53 -6 65 -17z m11 -140 c49 -56 8 -123 -75 -123 l-48 0 0 70 0 70 53 0 c39
0 58 -5 70 -17z"/>
<path d="M2390 695 l0 -155 98 2 c96 2 96 2 20 5 l-78 4 0 69 0 70 59 0 c33 0
63 5 66 10 4 6 -18 10 -59 10 l-66 0 0 60 0 60 75 0 c43 0 75 4 75 10 0 6 -38
10 -95 10 l-95 0 0 -155z"/>
<path d="M3090 695 l0 -155 98 2 c96 2 96 2 20 5 l-78 4 0 69 0 70 60 0 c33 0
60 4 60 10 0 6 -27 10 -60 10 l-60 0 0 60 0 60 75 0 c43 0 75 4 75 10 0 6 -38
10 -95 10 l-95 0 0 -155z"/>
<path d="M3350 696 l0 -156 69 0 c54 0 75 5 102 23 68 45 90 143 47 207 -38
55 -67 70 -146 77 l-72 6 0 -157z m135 114 c62 -38 83 -126 45 -187 -25 -41
-59 -63 -110 -70 l-40 -6 0 142 0 141 36 0 c20 0 51 -9 69 -20z"/>
<path d="M3680 695 c0 -131 2 -155 15 -155 13 0 15 24 15 155 0 131 -2 155
-15 155 -13 0 -15 -24 -15 -155z"/>
<path d="M3892 833 c-20 -39 -93 -274 -89 -286 2 -6 10 7 17 31 l13 42 73 0
73 0 12 -40 c9 -28 18 -40 31 -40 22 0 21 5 -37 180 -34 103 -45 126 -63 128
-12 2 -24 -4 -30 -15z m52 -108 c14 -44 26 -83 26 -88 0 -4 -30 -7 -66 -7 -49
0 -65 3 -62 13 3 6 17 50 33 95 15 46 31 80 35 75 4 -4 19 -44 34 -88z"/>
<path d="M2773 649 c-29 -50 -53 -95 -53 -100 0 -9 69 -44 75 -37 1 2 20 34
43 72 l40 69 -21 43 c-11 24 -23 44 -26 44 -4 0 -30 -41 -58 -91z"/>
<path d="M2711 644 c-18 -30 -31 -58 -28 -60 3 -3 18 16 33 43 15 26 32 54 37
61 5 6 5 12 1 12 -5 0 -24 -25 -43 -56z"/>
<path d="M2920 652 c-9 -15 -31 -54 -50 -86 l-33 -59 37 6 c43 7 102 47 111
76 5 18 -31 91 -45 91 -3 0 -12 -12 -20 -28z"/>
<path d="M896 343 c9 -21 20 -56 24 -78 6 -32 8 -34 9 -12 0 15 12 50 26 77
14 28 21 50 16 50 -5 0 -15 -16 -21 -35 -14 -43 -24 -44 -40 -5 -7 17 -17 33
-22 36 -5 3 -1 -11 8 -33z"/>
<path d="M1017 362 c-24 -26 -22 -87 3 -112 59 -59 134 37 84 108 -19 27 -64
29 -87 4z m80 -22 c17 -36 5 -79 -24 -93 -22 -10 -28 -8 -44 12 -24 29 -24 69
-2 93 22 25 55 19 70 -12z"/>
<path d="M1162 323 c-2 -68 12 -93 53 -93 34 0 47 30 42 98 l-3 57 -2 -61 c-2
-62 -13 -84 -43 -84 -25 0 -33 17 -40 85 l-6 60 -1 -62z"/>
<path d="M1311 303 c1 -54 4 -67 8 -44 8 48 25 49 55 4 29 -42 34 -38 11 8
-14 26 -14 30 0 35 20 8 20 60 -1 68 -9 3 -29 6 -45 6 l-29 0 1 -77z m74 37
c0 -21 -5 -26 -32 -28 -31 -3 -33 -1 -33 28 0 29 2 31 33 28 27 -2 32 -7 32
-28z"/>
<path d="M1492 303 l2 -78 5 70 c5 54 8 65 14 47 5 -13 11 -22 13 -19 8 7 -15
57 -26 57 -6 0 -9 -30 -8 -77z"/>
<path d="M1597 318 c6 -96 11 -101 12 -15 0 42 -3 77 -7 77 -5 0 -7 -28 -5
-62z"/>
<path d="M1667 305 c-14 -41 -22 -75 -17 -75 4 0 11 11 14 25 5 20 13 25 36
25 24 0 33 -6 41 -26 5 -15 11 -25 14 -23 2 3 -7 34 -20 69 -13 36 -24 60 -24
53 -1 -6 3 -23 9 -37 9 -24 7 -26 -15 -26 -29 0 -32 20 -11 63 8 15 11 27 6
27 -4 0 -20 -34 -33 -75z"/>
<path d="M1791 303 c1 -54 4 -67 8 -44 8 47 27 49 52 6 26 -43 37 -40 14 4
-14 28 -14 32 0 37 20 8 20 60 -1 68 -9 3 -29 6 -45 6 l-29 0 1 -77z m74 37
c0 -21 -5 -26 -32 -28 -31 -3 -33 -1 -33 28 0 29 2 31 33 28 27 -2 32 -7 32
-28z"/>
<path d="M1920 305 c0 -43 4 -75 10 -75 6 0 10 13 10 29 0 16 6 34 14 40 12
10 19 5 38 -28 13 -23 26 -41 30 -41 5 0 -4 22 -19 49 l-28 49 24 26 c14 14
21 26 16 26 -4 0 -23 -17 -41 -37 l-33 -38 -1 38 c0 20 -4 37 -10 37 -6 0 -10
-32 -10 -75z"/>
<path d="M2060 305 l0 -75 43 2 42 1 -37 4 c-34 4 -38 7 -38 34 0 26 3 29 33
30 l32 1 -30 7 c-23 5 -31 12 -33 33 -3 24 0 27 35 31 l38 4 -42 1 -43 2 0
-75z"/>
<path d="M2188 373 c20 -4 22 -10 22 -74 0 -39 4 -69 10 -69 6 0 10 30 10 69
0 64 2 70 23 74 12 2 -3 4 -33 4 -30 0 -45 -2 -32 -4z"/>
<path d="M2313 305 c0 -44 2 -61 4 -37 2 23 2 59 0 80 -2 20 -4 1 -4 -43z"/>
<path d="M2372 303 l2 -78 5 68 6 67 35 -65 c19 -36 38 -65 43 -65 4 0 6 35 5
78 l-1 77 -6 -65 -6 -65 -35 62 c-19 35 -38 63 -42 63 -5 0 -7 -35 -6 -77z"/>
<path d="M2530 360 c-40 -40 -12 -130 40 -130 37 0 50 11 50 46 0 29 -4 34
-22 34 -21 -1 -21 -2 -5 -11 23 -13 22 -46 -3 -54 -45 -14 -80 37 -60 89 9 26
50 44 69 31 6 -3 11 -1 11 4 0 19 -59 12 -80 -9z"/>
<path d="M2735 368 c-26 -72 -44 -132 -40 -136 2 -3 9 7 14 22 8 20 17 26 41
26 23 0 31 -5 36 -25 3 -14 10 -25 14 -25 5 0 -3 34 -17 75 -24 71 -38 90 -48
63z m30 -45 c6 -30 4 -33 -18 -33 -23 0 -24 1 -14 40 12 44 21 42 32 -7z"/>
<path d="M2847 362 c-10 -11 -17 -35 -17 -60 0 -33 5 -45 24 -58 14 -8 35 -14
48 -12 19 2 24 10 26 41 3 33 1 37 -20 36 -18 -1 -19 -2 -5 -6 13 -3 17 -12
15 -31 -7 -58 -78 -27 -78 33 0 42 30 70 65 61 17 -4 24 -3 20 4 -10 17 -61
11 -78 -8z"/>
<path d="M2980 305 l0 -75 43 2 42 1 -37 4 c-34 4 -38 7 -38 34 0 26 3 29 33
30 l32 1 -30 7 c-23 5 -31 12 -33 33 -3 24 0 27 35 31 l38 4 -42 1 -43 2 0
-75z"/>
<path d="M3101 303 c1 -86 6 -81 12 15 2 34 0 62 -5 62 -4 0 -7 -35 -7 -77z"/>
<path d="M3188 318 l-3 -62 -28 53 c-16 29 -31 50 -34 48 -5 -6 55 -115 68
-123 5 -3 9 28 9 70 0 91 -8 100 -12 14z"/>
<path d="M3274 372 c-37 -24 -40 -88 -7 -124 18 -20 58 -24 69 -7 4 8 -1 9
-15 4 -32 -10 -61 20 -61 61 0 40 25 67 56 61 13 -2 21 0 18 4 -6 11 -45 11
-60 1z"/>
<path d="M3370 377 c0 -4 7 -24 16 -45 9 -20 20 -53 24 -72 l8 -35 1 33 c0 18
10 51 22 73 11 23 18 43 15 46 -3 3 -12 -11 -20 -31 -8 -20 -17 -36 -20 -36
-3 0 -14 17 -25 38 -11 20 -20 33 -21 29z"/>
<path d="M1560 281 c0 -7 -4 -9 -10 -6 -5 3 -10 2 -10 -4 0 -5 4 -12 9 -15 10
-6 25 24 16 32 -3 3 -5 0 -5 -7z"/>
</g>
</svg>
